<mxfile host="app.diagrams.net" modified="2023-09-03T14:51:09.590Z" agent="Mozilla/5.0 (Macintosh; Intel Mac OS X 10_15_7) AppleWebKit/537.36 (KHTML, like Gecko) Chrome/116.0.0.0 Safari/537.36" version="21.6.9" etag="msYS99TFgO9Q2uQAuSVl" type="github">
  <diagram name="第 1 页" id="8feNu8RAte_IWlyrpGBa">
    <mxGraphModel>
      <root>
        <mxCell id="0" />
        <mxCell id="1" parent="0" />
      </root>
    </mxGraphModel>
  </diagram>
</mxfile>
